<mxfile host="app.diagrams.net" modified="2024-02-19T20:13:54.803Z" agent="Mozilla/5.0 (Windows NT 10.0; Win64; x64; rv:122.0) Gecko/20100101 Firefox/122.0" etag="GiA7Xj48vGJXavuWLSd6" version="23.1.5" type="device">
  <diagram id="C5RBs43oDa-KdzZeNtuy" name="Page-1">
    <mxGraphModel dx="1232" dy="1085" grid="1" gridSize="10" guides="1" tooltips="1" connect="1" arrows="1" fold="1" page="1" pageScale="1" pageWidth="827" pageHeight="1169" math="0" shadow="0">
      <root>
        <mxCell id="WIyWlLk6GJQsqaUBKTNV-0" />
        <mxCell id="WIyWlLk6GJQsqaUBKTNV-1" parent="WIyWlLk6GJQsqaUBKTNV-0" />
        <mxCell id="weFE4cTFyawRNSKeLTiy-0" value="" style="edgeStyle=orthogonalEdgeStyle;rounded=0;orthogonalLoop=1;jettySize=auto;html=1;" parent="WIyWlLk6GJQsqaUBKTNV-1" source="weFE4cTFyawRNSKeLTiy-1" target="weFE4cTFyawRNSKeLTiy-3" edge="1">
          <mxGeometry relative="1" as="geometry" />
        </mxCell>
        <mxCell id="weFE4cTFyawRNSKeLTiy-1" value="Nutzer startet Applikation im Testmodus" style="ellipse;whiteSpace=wrap;html=1;" parent="WIyWlLk6GJQsqaUBKTNV-1" vertex="1">
          <mxGeometry x="80" y="30" width="120" height="80" as="geometry" />
        </mxCell>
        <mxCell id="weFE4cTFyawRNSKeLTiy-2" value="" style="edgeStyle=orthogonalEdgeStyle;rounded=0;orthogonalLoop=1;jettySize=auto;html=1;entryX=0.5;entryY=0;entryDx=0;entryDy=0;" parent="WIyWlLk6GJQsqaUBKTNV-1" source="weFE4cTFyawRNSKeLTiy-3" target="mFhx_llABbmhJXtWyl7u-0" edge="1">
          <mxGeometry relative="1" as="geometry">
            <mxPoint x="140" y="210" as="targetPoint" />
          </mxGeometry>
        </mxCell>
        <mxCell id="weFE4cTFyawRNSKeLTiy-3" value="Nutzer übergibt eine Test-Datensatz" style="whiteSpace=wrap;html=1;" parent="WIyWlLk6GJQsqaUBKTNV-1" vertex="1">
          <mxGeometry x="80" y="130" width="120" height="60" as="geometry" />
        </mxCell>
        <mxCell id="weFE4cTFyawRNSKeLTiy-9" value="" style="edgeStyle=orthogonalEdgeStyle;rounded=0;orthogonalLoop=1;jettySize=auto;html=1;exitX=0.5;exitY=1;exitDx=0;exitDy=0;" parent="WIyWlLk6GJQsqaUBKTNV-1" source="mFhx_llABbmhJXtWyl7u-0" target="weFE4cTFyawRNSKeLTiy-15" edge="1">
          <mxGeometry relative="1" as="geometry">
            <mxPoint x="140" y="390" as="sourcePoint" />
          </mxGeometry>
        </mxCell>
        <mxCell id="weFE4cTFyawRNSKeLTiy-10" value="JA" style="edgeLabel;html=1;align=center;verticalAlign=middle;resizable=0;points=[];" parent="weFE4cTFyawRNSKeLTiy-9" vertex="1" connectable="0">
          <mxGeometry x="0.6" y="-1" relative="1" as="geometry">
            <mxPoint x="1" y="-70" as="offset" />
          </mxGeometry>
        </mxCell>
        <mxCell id="weFE4cTFyawRNSKeLTiy-14" value="" style="edgeStyle=orthogonalEdgeStyle;rounded=0;orthogonalLoop=1;jettySize=auto;html=1;" parent="WIyWlLk6GJQsqaUBKTNV-1" source="weFE4cTFyawRNSKeLTiy-15" target="weFE4cTFyawRNSKeLTiy-17" edge="1">
          <mxGeometry relative="1" as="geometry" />
        </mxCell>
        <mxCell id="weFE4cTFyawRNSKeLTiy-15" value="einzelnen Datensatz auslesen" style="whiteSpace=wrap;html=1;" parent="WIyWlLk6GJQsqaUBKTNV-1" vertex="1">
          <mxGeometry x="80" y="340" width="120" height="60" as="geometry" />
        </mxCell>
        <mxCell id="weFE4cTFyawRNSKeLTiy-16" value="" style="edgeStyle=orthogonalEdgeStyle;rounded=0;orthogonalLoop=1;jettySize=auto;html=1;" parent="WIyWlLk6GJQsqaUBKTNV-1" source="weFE4cTFyawRNSKeLTiy-17" target="weFE4cTFyawRNSKeLTiy-19" edge="1">
          <mxGeometry relative="1" as="geometry" />
        </mxCell>
        <mxCell id="weFE4cTFyawRNSKeLTiy-17" value="CNN-Magic (siehe eigenes Ablaufsdiagramm)" style="whiteSpace=wrap;html=1;" parent="WIyWlLk6GJQsqaUBKTNV-1" vertex="1">
          <mxGeometry x="80" y="420" width="120" height="60" as="geometry" />
        </mxCell>
        <mxCell id="weFE4cTFyawRNSKeLTiy-18" value="" style="edgeStyle=orthogonalEdgeStyle;rounded=0;orthogonalLoop=1;jettySize=auto;html=1;" parent="WIyWlLk6GJQsqaUBKTNV-1" source="weFE4cTFyawRNSKeLTiy-19" target="weFE4cTFyawRNSKeLTiy-21" edge="1">
          <mxGeometry relative="1" as="geometry" />
        </mxCell>
        <mxCell id="weFE4cTFyawRNSKeLTiy-19" value="10 Outputs al Dezimalzahl erhalten" style="whiteSpace=wrap;html=1;" parent="WIyWlLk6GJQsqaUBKTNV-1" vertex="1">
          <mxGeometry x="80" y="500" width="120" height="60" as="geometry" />
        </mxCell>
        <mxCell id="weFE4cTFyawRNSKeLTiy-38" value="" style="edgeStyle=orthogonalEdgeStyle;rounded=0;orthogonalLoop=1;jettySize=auto;html=1;" parent="WIyWlLk6GJQsqaUBKTNV-1" source="weFE4cTFyawRNSKeLTiy-21" target="weFE4cTFyawRNSKeLTiy-37" edge="1">
          <mxGeometry relative="1" as="geometry" />
        </mxCell>
        <mxCell id="weFE4cTFyawRNSKeLTiy-21" value="höchsten Output ermittel und dessen korrespondierende Ziffer" style="whiteSpace=wrap;html=1;" parent="WIyWlLk6GJQsqaUBKTNV-1" vertex="1">
          <mxGeometry x="80" y="580" width="120" height="60" as="geometry" />
        </mxCell>
        <mxCell id="weFE4cTFyawRNSKeLTiy-27" style="edgeStyle=orthogonalEdgeStyle;rounded=0;orthogonalLoop=1;jettySize=auto;html=1;entryX=0;entryY=0.5;entryDx=0;entryDy=0;exitX=0;exitY=0.5;exitDx=0;exitDy=0;" parent="WIyWlLk6GJQsqaUBKTNV-1" source="weFE4cTFyawRNSKeLTiy-31" target="weFE4cTFyawRNSKeLTiy-15" edge="1">
          <mxGeometry relative="1" as="geometry">
            <Array as="points">
              <mxPoint x="40" y="870" />
              <mxPoint x="40" y="370" />
            </Array>
          </mxGeometry>
        </mxCell>
        <mxCell id="weFE4cTFyawRNSKeLTiy-28" value="JA" style="edgeLabel;html=1;align=center;verticalAlign=middle;resizable=0;points=[];" parent="weFE4cTFyawRNSKeLTiy-27" vertex="1" connectable="0">
          <mxGeometry x="-0.3529" y="-1" relative="1" as="geometry">
            <mxPoint as="offset" />
          </mxGeometry>
        </mxCell>
        <mxCell id="weFE4cTFyawRNSKeLTiy-29" value="" style="edgeStyle=orthogonalEdgeStyle;rounded=0;orthogonalLoop=1;jettySize=auto;html=1;" parent="WIyWlLk6GJQsqaUBKTNV-1" source="weFE4cTFyawRNSKeLTiy-31" target="weFE4cTFyawRNSKeLTiy-32" edge="1">
          <mxGeometry relative="1" as="geometry" />
        </mxCell>
        <mxCell id="weFE4cTFyawRNSKeLTiy-30" value="Nein" style="edgeLabel;html=1;align=center;verticalAlign=middle;resizable=0;points=[];" parent="weFE4cTFyawRNSKeLTiy-29" vertex="1" connectable="0">
          <mxGeometry x="0.6667" y="-1" relative="1" as="geometry">
            <mxPoint as="offset" />
          </mxGeometry>
        </mxCell>
        <mxCell id="weFE4cTFyawRNSKeLTiy-31" value="&lt;div&gt;Sind noch&amp;nbsp;&lt;/div&gt;&lt;div&gt;Daten vorhanden, welche noch nicht behandelt wurden?&lt;/div&gt;" style="rhombus;whiteSpace=wrap;html=1;" parent="WIyWlLk6GJQsqaUBKTNV-1" vertex="1">
          <mxGeometry x="60" y="810" width="160" height="120" as="geometry" />
        </mxCell>
        <mxCell id="weFE4cTFyawRNSKeLTiy-32" value="Training wird beendet" style="ellipse;whiteSpace=wrap;html=1;" parent="WIyWlLk6GJQsqaUBKTNV-1" vertex="1">
          <mxGeometry x="80" y="950" width="120" height="80" as="geometry" />
        </mxCell>
        <mxCell id="weFE4cTFyawRNSKeLTiy-36" value="&lt;div&gt;Error, der Datensatz kann nicht gelesen&lt;/div&gt;&lt;div&gt;werden&lt;br&gt;&lt;/div&gt;" style="ellipse;whiteSpace=wrap;html=1;" parent="WIyWlLk6GJQsqaUBKTNV-1" vertex="1">
          <mxGeometry x="260" y="215" width="130" height="90" as="geometry" />
        </mxCell>
        <mxCell id="weFE4cTFyawRNSKeLTiy-42" value="" style="edgeStyle=orthogonalEdgeStyle;rounded=0;orthogonalLoop=1;jettySize=auto;html=1;" parent="WIyWlLk6GJQsqaUBKTNV-1" source="weFE4cTFyawRNSKeLTiy-37" target="weFE4cTFyawRNSKeLTiy-41" edge="1">
          <mxGeometry relative="1" as="geometry" />
        </mxCell>
        <mxCell id="weFE4cTFyawRNSKeLTiy-37" value="Aktualisierung des aktuellen Korrektheitsstand " style="whiteSpace=wrap;html=1;" parent="WIyWlLk6GJQsqaUBKTNV-1" vertex="1">
          <mxGeometry x="80" y="660" width="120" height="60" as="geometry" />
        </mxCell>
        <mxCell id="weFE4cTFyawRNSKeLTiy-43" value="" style="edgeStyle=orthogonalEdgeStyle;rounded=0;orthogonalLoop=1;jettySize=auto;html=1;" parent="WIyWlLk6GJQsqaUBKTNV-1" source="weFE4cTFyawRNSKeLTiy-41" target="weFE4cTFyawRNSKeLTiy-31" edge="1">
          <mxGeometry relative="1" as="geometry" />
        </mxCell>
        <mxCell id="weFE4cTFyawRNSKeLTiy-41" value="Fortschritt der Tests an Nutzer ausgeben" style="whiteSpace=wrap;html=1;" parent="WIyWlLk6GJQsqaUBKTNV-1" vertex="1">
          <mxGeometry x="80" y="740" width="120" height="50" as="geometry" />
        </mxCell>
        <mxCell id="mFhx_llABbmhJXtWyl7u-1" style="edgeStyle=orthogonalEdgeStyle;rounded=0;orthogonalLoop=1;jettySize=auto;html=1;entryX=0;entryY=0.5;entryDx=0;entryDy=0;" edge="1" parent="WIyWlLk6GJQsqaUBKTNV-1" source="mFhx_llABbmhJXtWyl7u-0" target="weFE4cTFyawRNSKeLTiy-36">
          <mxGeometry relative="1" as="geometry" />
        </mxCell>
        <mxCell id="mFhx_llABbmhJXtWyl7u-2" value="Nein" style="edgeLabel;html=1;align=center;verticalAlign=middle;resizable=0;points=[];" vertex="1" connectable="0" parent="mFhx_llABbmhJXtWyl7u-1">
          <mxGeometry x="-0.05" y="3" relative="1" as="geometry">
            <mxPoint as="offset" />
          </mxGeometry>
        </mxCell>
        <mxCell id="mFhx_llABbmhJXtWyl7u-0" value="&lt;div&gt;Ist der&lt;/div&gt;&lt;div&gt;&amp;nbsp;Datenset&lt;/div&gt;&lt;div&gt;nach dem MNIST-&lt;/div&gt;&lt;div&gt;Standard&lt;br&gt;&lt;/div&gt;" style="rhombus;whiteSpace=wrap;html=1;" vertex="1" parent="WIyWlLk6GJQsqaUBKTNV-1">
          <mxGeometry x="60" y="210" width="160" height="100" as="geometry" />
        </mxCell>
      </root>
    </mxGraphModel>
  </diagram>
</mxfile>
